<svg xmlns="http://www.w3.org/2000/svg" xmlns:xlink="http://www.w3.org/1999/xlink" viewBox="0 0 300 300">
    <polyline points="0 0 300 0 300 300 0 300 0 255 255 255 255 172.5 0 172.5 0 127.5 255 127.5 255 45 0 45 0 0" fill="#0888ff"/>
    <path d="M 0 0 H 100 C 230 0, 230 172.5, 100 172.5 H 0 V 0 L 45 45 V 127.5 H 100 C 170 135, 170 45, 100 45 H 45 L 0 0" fill="#45a6ff"/>
    <path d="M 0 127.5 H 100 C 230 127.5, 230 300, 100 300 H 0 V 127.5 L 45 172.5 V 255 H 100 C 170 255, 170 172.5, 100 172.5 H 45 L 0 127.5" fill="#45a6ff"/>
</svg>